<svg width="60" height="58" viewBox="0 0 60 58" fill="none" xmlns="http://www.w3.org/2000/svg">
<g clip-path="url(#clip0_109_16)">
<path d="M26.1958 3.70815C27.3932 0.0229027 32.6068 0.0229042 33.8042 3.70815L38.0825 16.8753C38.618 18.5234 40.1538 19.6392 41.8867 19.6392H55.7315C59.6064 19.6392 61.2175 24.5977 58.0827 26.8753L46.882 35.0131C45.48 36.0316 44.8934 37.8371 45.4289 39.4852L49.7072 52.6524C50.9046 56.3376 46.6867 59.4021 43.5518 57.1245L32.3511 48.9867C30.9492 47.9682 29.0508 47.9682 27.6489 48.9867L16.4482 57.1245C13.3133 59.4021 9.09541 56.3376 10.2928 52.6524L14.5711 39.4852C15.1066 37.8371 14.52 36.0316 13.118 35.0131L1.91733 26.8753C-1.21752 24.5977 0.393576 19.6392 4.26847 19.6392H18.1133C19.8462 19.6392 21.382 18.5234 21.9175 16.8753L26.1958 3.70815Z" fill="#E2E2E3"/>
</g>
<defs>
<clipPath id="clip0_109_16">
<rect width="60" height="58" fill="white"/>
</clipPath>
</defs>
</svg>
