<svg width="28" height="28" viewBox="0 0 28 28" fill="none" xmlns="http://www.w3.org/2000/svg">
<g clip-path="url(#clip0_50_26)">
<path fill-rule="evenodd" clip-rule="evenodd" d="M0.367859 19.7016C0.368426 19.6279 0.375074 19.5781 0.375074 19.5781C0.375074 19.5781 0.423698 15.4853 0.382289 14.4519C0.340567 13.4191 1.2638 13.9094 1.2638 13.9094L6.44306 16.5562C6.44306 16.5562 7.4557 17.0367 6.42549 17.5596C5.66507 17.9461 2.27016 19.7018 1.24905 20.1875C0.465553 20.5608 0.370018 20.0012 0.367859 19.7215V19.7016ZM21.6179 10.8067C21.6179 10.8067 21.5473 9.96358 22.2704 10.3303C22.9944 10.6973 26.6023 12.5267 26.6023 12.5267C26.6023 12.5267 28.5988 13.5077 26.5976 14.5173C25.1825 15.2311 23.0233 16.3219 22.2792 16.6957C21.5348 17.0695 21.6122 16.2639 21.6122 16.2639L21.6179 10.8067ZM15.4069 20.3226C14.3861 20.8087 14.5326 19.7135 14.5326 19.7135C14.5326 19.7135 14.5815 15.6208 14.5401 14.587C14.4981 13.5536 15.4216 14.0449 15.4216 14.0449L20.6002 16.6914C20.6002 16.6914 21.6135 17.1715 20.5827 17.6951C19.8232 18.081 16.428 19.8369 15.4069 20.3226ZM8.33658 23.8398C7.31547 24.3258 7.46229 23.2298 7.46229 23.2298C7.46229 23.2298 7.51091 19.137 7.4695 18.1039C7.42778 17.0702 8.3507 17.5615 8.3507 17.5615L13.5303 20.2083C13.5303 20.2083 14.5429 20.6884 13.5124 21.2119C12.7523 21.5975 9.35738 23.3535 8.33658 23.8398ZM8.34442 16.6756C7.32363 17.1613 7.47044 16.0662 7.47044 16.0662C7.47044 16.0662 7.51907 11.9734 7.47734 10.94C7.43594 9.90654 8.35885 10.3975 8.35885 10.3975L13.5384 13.0443C13.5384 13.0443 14.5514 13.5245 13.5205 14.0477C12.7608 14.4336 9.36553 16.1895 8.34442 16.6756ZM15.4084 12.9752C14.3876 13.4612 14.5344 12.3661 14.5344 12.3661C14.5344 12.3661 14.5831 8.27302 14.5413 7.2396C14.4996 6.20648 15.4229 6.69716 15.4229 6.69716L20.6021 9.34427C20.6021 9.34427 21.6151 9.82409 20.5842 10.3473C19.8241 10.7332 16.4289 12.4892 15.4084 12.9752ZM1.25627 13.1156C0.235476 13.6016 0.382289 12.5059 0.382289 12.5059C0.382289 12.5059 0.430913 8.41313 0.389191 7.3797C0.347468 6.34659 1.2707 6.83726 1.2707 6.83726L6.44996 9.48437C6.44996 9.48437 7.46291 9.9642 6.43208 10.4877C5.67229 10.8739 2.27706 12.6293 1.25627 13.1156ZM8.33721 9.44314C7.31673 9.92917 7.46291 8.83406 7.46291 8.83406C7.46291 8.83406 7.51185 4.74128 7.46982 3.70754C7.42872 2.67443 8.35164 3.16541 8.35164 3.16541L13.5309 5.81221C13.5309 5.81221 14.5439 6.29203 13.5133 6.81526C12.7532 7.20147 9.358 8.95743 8.33721 9.44314ZM0.380404 21.251C0.378839 20.7237 0.912764 20.9398 0.912764 20.9398C0.912764 20.9398 6.19021 23.6272 6.78657 23.9359C7.38355 24.2449 6.78782 24.5871 6.78782 24.5871C6.78782 24.5871 4.6562 25.6454 2.587 26.7033C0.518123 27.7618 0.388877 25.7154 0.388877 25.7154L0.380404 21.251ZM0.402994 5.75734L0.407699 1.2926C0.407699 1.2926 0.535377 -0.753485 2.6052 0.302878C4.67502 1.35893 6.8079 2.41467 6.8079 2.41467C6.8079 2.41467 7.40362 2.75688 6.80727 3.06622C6.21061 3.37557 0.936292 6.06762 0.936292 6.06762C0.936292 6.06762 0.40268 6.28397 0.402994 5.75734Z" fill="url(#paint0_linear_50_26)"/>
</g>
<defs>
<linearGradient id="paint0_linear_50_26" x1="0.367859" y1="1350.36" x2="2712.41" y2="1350.36" gradientUnits="userSpaceOnUse">
<stop stop-color="#100D04"/>
<stop offset="1" stop-color="#100D04"/>
</linearGradient>
<clipPath id="clip0_50_26">
<rect width="28" height="28" fill="white"/>
</clipPath>
</defs>
</svg>
