<svg width="100" height="101" viewBox="0 0 100 101" fill="none" xmlns="http://www.w3.org/2000/svg">
<path d="M74.6989 60.8992C68.6989 74.5012 52.6989 80.7002 39.0969 74.7002C25.4949 68.7002 19.2959 52.7002 25.2959 39.0982C31.2959 25.4962 47.2959 19.2972 60.8979 25.2972C74.4999 31.3011 80.6989 47.3012 74.6989 60.8992ZM52.6989 16.3012V2.6992C52.6989 1.1992 51.4997 0 49.9997 0C48.4997 0 47.3005 1.1992 47.3005 2.6992V16.3982C47.3005 17.8982 48.4997 19.0974 49.9997 19.0974C51.4997 19.1013 52.6989 17.8012 52.6989 16.3012ZM52.6989 97.3012V83.6992C52.6989 82.1992 51.4997 81 49.9997 81C48.4997 81 47.3005 82.1992 47.3005 83.6992V97.3982C47.3005 98.8982 48.4997 100.097 49.9997 100.097C51.4997 100.101 52.6989 98.8012 52.6989 97.3012ZM28.1009 28.1022C29.1009 27.1022 29.1009 25.403 28.1009 24.3014L18.4017 14.6022C17.4017 13.6022 15.7025 13.6022 14.6009 14.6022C13.4993 15.6022 13.6009 17.3014 14.6009 18.403L24.3001 28.1022C24.8001 28.6022 25.4993 28.903 26.1985 28.903C26.8977 28.8991 27.6009 28.6022 28.1009 28.1022ZM85.3979 85.3992C86.3979 84.3992 86.3979 82.7 85.3979 81.5984L75.6987 71.8992C74.6987 70.8992 72.9995 70.8992 71.8979 71.8992C70.8979 72.8992 70.8979 74.5984 71.8979 75.7L81.5971 85.3992C82.0971 85.8992 82.7963 86.2 83.4955 86.2C84.1986 86.2 84.8003 85.8992 85.3979 85.3992ZM18.9999 50.0012C18.9999 48.5012 17.8007 47.302 16.3007 47.302H2.69871C1.19871 47.302 -0.000488281 48.5012 -0.000488281 50.0012C-0.000488281 51.5012 1.19871 52.7004 2.69871 52.7004H16.3977C17.8 52.7004 18.9999 51.5012 18.9999 50.0012ZM99.9999 50.0012C99.9999 48.5012 98.8007 47.302 97.3007 47.302H83.6987C82.1987 47.302 80.9995 48.5012 80.9995 50.0012C80.9995 51.5012 82.1987 52.7004 83.6987 52.7004H97.3977C98.8 52.7004 99.9999 51.5012 99.9999 50.0012ZM18.3979 85.3992L28.0971 75.7C29.0971 74.7 29.0971 73.0008 28.0971 71.8992C27.0971 70.8992 25.3979 70.8992 24.2963 71.8992L14.5971 81.5984C13.5971 82.5984 13.5971 84.2976 14.5971 85.3992C15.0971 85.8992 15.7963 86.2 16.4955 86.2C17.1986 86.1023 17.8979 85.8992 18.3979 85.3992ZM75.6989 28.1022L85.3981 18.403C86.3981 17.403 86.3981 15.7038 85.3981 14.6022C84.3981 13.6022 82.6989 13.6022 81.5973 14.6022L71.8981 24.3014C70.8981 25.3014 70.8981 27.0006 71.8981 28.1022C72.3981 28.6022 73.0973 28.903 73.7965 28.903C74.4996 28.8991 75.1989 28.6022 75.6989 28.1022Z" fill="#FAAD00"/>
</svg>
