<svg width="275" height="39" viewBox="0 0 275 39" fill="none" xmlns="http://www.w3.org/2000/svg">
<path d="M0.637969 29V0.999998H10.918C13.158 0.999998 14.998 1.38667 16.438 2.16C17.9046 2.90667 18.998 3.93333 19.718 5.24C20.438 6.52 20.798 7.94667 20.798 9.52C20.798 11.2267 20.3446 12.7867 19.438 14.2C18.558 15.6133 17.1713 16.64 15.278 17.28L21.078 29H15.198L9.99797 17.96H5.75797V29H0.637969ZM5.75797 14.2H10.598C12.3046 14.2 13.558 13.7867 14.358 12.96C15.158 12.1333 15.558 11.04 15.558 9.68C15.558 8.34667 15.158 7.28 14.358 6.48C13.5846 5.68 12.318 5.28 10.558 5.28H5.75797V14.2ZM33.8689 29.48C31.8689 29.48 30.0956 29.0533 28.5489 28.2C27.0022 27.3467 25.7889 26.1467 24.9089 24.6C24.0289 23.0533 23.5889 21.2667 23.5889 19.24C23.5889 17.1867 24.0156 15.36 24.8689 13.76C25.7489 12.16 26.9489 10.92 28.4689 10.04C30.0156 9.13333 31.8289 8.68 33.9089 8.68C35.8556 8.68 37.5756 9.10667 39.0689 9.96C40.5622 10.8133 41.7222 11.9867 42.5489 13.48C43.4022 14.9467 43.8289 16.5867 43.8289 18.4C43.8289 18.6933 43.8156 19 43.7889 19.32C43.7889 19.64 43.7756 19.9733 43.7489 20.32H28.6689C28.7756 21.8667 29.3089 23.08 30.2689 23.96C31.2556 24.84 32.4422 25.28 33.8289 25.28C34.8689 25.28 35.7356 25.0533 36.4289 24.6C37.1489 24.12 37.6822 23.5067 38.0289 22.76H43.2289C42.8556 24.0133 42.2289 25.16 41.3489 26.2C40.4956 27.2133 39.4289 28.0133 38.1489 28.6C36.8956 29.1867 35.4689 29.48 33.8689 29.48ZM33.9089 12.84C32.6556 12.84 31.5489 13.2 30.5889 13.92C29.6289 14.6133 29.0156 15.68 28.7489 17.12H38.6289C38.5489 15.8133 38.0689 14.7733 37.1889 14C36.3089 13.2267 35.2156 12.84 33.9089 12.84ZM57.7752 29.48C55.7752 29.48 54.0018 29.0533 52.4552 28.2C50.9085 27.3467 49.6952 26.1467 48.8152 24.6C47.9352 23.0533 47.4952 21.2667 47.4952 19.24C47.4952 17.1867 47.9218 15.36 48.7752 13.76C49.6552 12.16 50.8552 10.92 52.3752 10.04C53.9218 9.13333 55.7352 8.68 57.8152 8.68C59.7618 8.68 61.4818 9.10667 62.9752 9.96C64.4685 10.8133 65.6285 11.9867 66.4552 13.48C67.3085 14.9467 67.7352 16.5867 67.7352 18.4C67.7352 18.6933 67.7218 19 67.6952 19.32C67.6952 19.64 67.6818 19.9733 67.6552 20.32H52.5752C52.6818 21.8667 53.2152 23.08 54.1752 23.96C55.1618 24.84 56.3485 25.28 57.7352 25.28C58.7752 25.28 59.6418 25.0533 60.3352 24.6C61.0552 24.12 61.5885 23.5067 61.9352 22.76H67.1352C66.7618 24.0133 66.1352 25.16 65.2552 26.2C64.4018 27.2133 63.3352 28.0133 62.0552 28.6C60.8018 29.1867 59.3752 29.48 57.7752 29.48ZM57.8152 12.84C56.5618 12.84 55.4552 13.2 54.4952 13.92C53.5352 14.6133 52.9218 15.68 52.6552 17.12H62.5352C62.4552 15.8133 61.9752 14.7733 61.0952 14C60.2152 13.2267 59.1218 12.84 57.8152 12.84ZM72.0414 29V0.199999H77.1614V29H72.0414ZM82.513 29V0.999998H92.793C95.033 0.999998 96.873 1.38667 98.313 2.16C99.7796 2.90667 100.873 3.93333 101.593 5.24C102.313 6.52 102.673 7.94667 102.673 9.52C102.673 11.2267 102.22 12.7867 101.313 14.2C100.433 15.6133 99.0463 16.64 97.153 17.28L102.953 29H97.073L91.873 17.96H87.633V29H82.513ZM87.633 14.2H92.473C94.1796 14.2 95.433 13.7867 96.233 12.96C97.033 12.1333 97.433 11.04 97.433 9.68C97.433 8.34667 97.033 7.28 96.233 6.48C95.4596 5.68 94.193 5.28 92.433 5.28H87.633V14.2ZM113.413 29.48C111.706 29.48 110.306 29.2133 109.213 28.68C108.119 28.12 107.306 27.3867 106.773 26.48C106.239 25.5733 105.973 24.5733 105.973 23.48C105.973 21.64 106.693 20.1467 108.133 19C109.573 17.8533 111.733 17.28 114.613 17.28H119.653V16.8C119.653 15.44 119.266 14.44 118.493 13.8C117.719 13.16 116.759 12.84 115.613 12.84C114.573 12.84 113.666 13.0933 112.893 13.6C112.119 14.08 111.639 14.8 111.453 15.76H106.453C106.586 14.32 107.066 13.0667 107.893 12C108.746 10.9333 109.839 10.12 111.173 9.56C112.506 8.97333 113.999 8.68 115.653 8.68C118.479 8.68 120.706 9.38667 122.333 10.8C123.959 12.2133 124.773 14.2133 124.773 16.8V29H120.413L119.933 25.8C119.346 26.8667 118.519 27.7467 117.453 28.44C116.413 29.1333 115.066 29.48 113.413 29.48ZM114.573 25.48C116.039 25.48 117.173 25 117.973 24.04C118.799 23.08 119.319 21.8933 119.533 20.48H115.173C113.813 20.48 112.839 20.7333 112.253 21.24C111.666 21.72 111.373 22.32 111.373 23.04C111.373 23.8133 111.666 24.4133 112.253 24.84C112.839 25.2667 113.613 25.48 114.573 25.48ZM138.225 29C136.145 29 134.478 28.4933 133.225 27.48C131.972 26.4667 131.345 24.6667 131.345 22.08V13.44H127.945V9.16H131.345L131.945 3.84H136.465V9.16H141.825V13.44H136.465V22.12C136.465 23.08 136.665 23.7467 137.065 24.12C137.492 24.4667 138.212 24.64 139.225 24.64H141.705V29H138.225ZM148.981 6.08C148.048 6.08 147.274 5.8 146.661 5.24C146.074 4.68 145.781 3.97333 145.781 3.12C145.781 2.26667 146.074 1.57333 146.661 1.04C147.274 0.479998 148.048 0.199999 148.981 0.199999C149.914 0.199999 150.674 0.479998 151.261 1.04C151.874 1.57333 152.181 2.26667 152.181 3.12C152.181 3.97333 151.874 4.68 151.261 5.24C150.674 5.8 149.914 6.08 148.981 6.08ZM146.421 29V9.16H151.541V29H146.421ZM156.885 29V9.16H161.405L161.805 12.52C162.418 11.3467 163.298 10.4133 164.445 9.72C165.618 9.02667 166.992 8.68 168.565 8.68C171.018 8.68 172.925 9.45333 174.285 11C175.645 12.5467 176.325 14.8133 176.325 17.8V29H171.205V18.28C171.205 16.5733 170.858 15.2667 170.165 14.36C169.472 13.4533 168.392 13 166.925 13C165.485 13 164.298 13.5067 163.365 14.52C162.458 15.5333 162.005 16.9467 162.005 18.76V29H156.885ZM189.621 23.08C188.661 23.08 187.768 22.9733 186.941 22.76L185.461 24.24C185.914 24.48 186.528 24.68 187.301 24.84C188.074 25 189.328 25.16 191.061 25.32C193.701 25.56 195.621 26.1867 196.821 27.2C198.021 28.2133 198.621 29.6133 198.621 31.4C198.621 32.5733 198.301 33.68 197.661 34.72C197.021 35.7867 196.034 36.64 194.701 37.28C193.368 37.9467 191.661 38.28 189.581 38.28C186.754 38.28 184.474 37.7467 182.741 36.68C181.008 35.64 180.141 34.0667 180.141 31.96C180.141 30.1733 181.008 28.6267 182.741 27.32C182.208 27.08 181.741 26.8267 181.341 26.56C180.968 26.2933 180.634 26.0133 180.341 25.72V24.8L183.821 21.12C182.274 19.76 181.501 18.0133 181.501 15.88C181.501 14.5467 181.821 13.3333 182.461 12.24C183.128 11.1467 184.061 10.28 185.261 9.64C186.461 9 187.914 8.68 189.621 8.68C190.741 8.68 191.781 8.84 192.741 9.16H200.261V12.28L196.861 12.52C197.394 13.5333 197.661 14.6533 197.661 15.88C197.661 17.2133 197.341 18.4267 196.701 19.52C196.061 20.6133 195.128 21.48 193.901 22.12C192.701 22.76 191.274 23.08 189.621 23.08ZM189.621 19.16C190.661 19.16 191.514 18.88 192.181 18.32C192.874 17.76 193.221 16.96 193.221 15.92C193.221 14.88 192.874 14.08 192.181 13.52C191.514 12.96 190.661 12.68 189.621 12.68C188.528 12.68 187.648 12.96 186.981 13.52C186.314 14.08 185.981 14.88 185.981 15.92C185.981 16.96 186.314 17.76 186.981 18.32C187.648 18.88 188.528 19.16 189.621 19.16ZM184.821 31.44C184.821 32.4267 185.274 33.16 186.181 33.64C187.114 34.1467 188.248 34.4 189.581 34.4C190.861 34.4 191.901 34.1333 192.701 33.6C193.501 33.0933 193.901 32.4 193.901 31.52C193.901 30.8 193.634 30.2 193.101 29.72C192.594 29.24 191.568 28.9467 190.021 28.84C188.928 28.76 187.914 28.64 186.981 28.48C186.208 28.9067 185.648 29.3733 185.301 29.88C184.981 30.3867 184.821 30.9067 184.821 31.44ZM212.195 29.48C210.435 29.48 208.888 29.2 207.555 28.64C206.221 28.0533 205.155 27.2533 204.355 26.24C203.555 25.2267 203.075 24.0533 202.915 22.72H208.075C208.235 23.4933 208.661 24.16 209.355 24.72C210.075 25.2533 210.995 25.52 212.115 25.52C213.235 25.52 214.048 25.2933 214.555 24.84C215.088 24.3867 215.355 23.8667 215.355 23.28C215.355 22.4267 214.981 21.8533 214.235 21.56C213.488 21.24 212.448 20.9333 211.115 20.64C210.261 20.4533 209.395 20.2267 208.515 19.96C207.635 19.6933 206.821 19.36 206.075 18.96C205.355 18.5333 204.768 18 204.315 17.36C203.861 16.6933 203.635 15.88 203.635 14.92C203.635 13.16 204.328 11.68 205.715 10.48C207.128 9.28 209.101 8.68 211.635 8.68C213.981 8.68 215.848 9.22667 217.235 10.32C218.648 11.4133 219.488 12.92 219.755 14.84H214.915C214.621 13.3733 213.515 12.64 211.595 12.64C210.635 12.64 209.888 12.8267 209.355 13.2C208.848 13.5733 208.595 14.04 208.595 14.6C208.595 15.1867 208.981 15.6533 209.755 16C210.528 16.3467 211.555 16.6667 212.835 16.96C214.221 17.28 215.488 17.64 216.635 18.04C217.808 18.4133 218.741 18.9867 219.435 19.76C220.128 20.5067 220.475 21.5867 220.475 23C220.501 24.2267 220.181 25.3333 219.515 26.32C218.848 27.3067 217.888 28.08 216.635 28.64C215.381 29.2 213.901 29.48 212.195 29.48ZM225.13 29V0.999998H234.69C237.97 0.999998 240.663 1.58667 242.77 2.76C244.903 3.90667 246.477 5.53333 247.49 7.64C248.53 9.72 249.05 12.1733 249.05 15C249.05 17.8267 248.53 20.2933 247.49 22.4C246.477 24.48 244.903 26.1067 242.77 27.28C240.663 28.4267 237.97 29 234.69 29H225.13ZM230.25 24.6H234.45C236.797 24.6 238.65 24.2267 240.01 23.48C241.37 22.7067 242.343 21.6133 242.93 20.2C243.517 18.76 243.81 17.0267 243.81 15C243.81 13 243.517 11.28 242.93 9.84C242.343 8.4 241.37 7.29333 240.01 6.52C238.65 5.74667 236.797 5.36 234.45 5.36H230.25V24.6ZM253.568 29V0.999998H264.808C267.714 0.999998 269.928 1.68 271.448 3.04C272.994 4.37333 273.768 6.09333 273.768 8.2C273.768 9.96 273.288 11.3733 272.328 12.44C271.394 13.48 270.248 14.1867 268.888 14.56C270.488 14.88 271.808 15.68 272.848 16.96C273.888 18.2133 274.408 19.68 274.408 21.36C274.408 23.5733 273.608 25.4 272.008 26.84C270.408 28.28 268.141 29 265.208 29H253.568ZM258.688 12.76H264.048C265.488 12.76 266.594 12.4267 267.368 11.76C268.141 11.0933 268.528 10.1467 268.528 8.92C268.528 7.74667 268.141 6.82667 267.368 6.16C266.621 5.46667 265.488 5.12 263.968 5.12H258.688V12.76ZM258.688 24.84H264.408C265.928 24.84 267.101 24.4933 267.928 23.8C268.781 23.08 269.208 22.08 269.208 20.8C269.208 19.4933 268.768 18.4667 267.888 17.72C267.008 16.9733 265.821 16.6 264.328 16.6H258.688V24.84Z" fill="#FAAD00"/>
<path d="M0.637969 29H0.137969V29.5H0.637969V29ZM0.637969 0.999998V0.499998H0.137969V0.999998H0.637969ZM16.438 2.16L16.2013 2.6006L16.2111 2.60558L16.438 2.16ZM19.718 5.24L19.28 5.48131L19.2822 5.48513L19.718 5.24ZM19.438 14.2L19.0171 13.93L19.0135 13.9357L19.438 14.2ZM15.278 17.28L15.1179 16.8063L14.5763 16.9894L14.8298 17.5018L15.278 17.28ZM21.078 29V29.5H21.8833L21.5261 28.7782L21.078 29ZM15.198 29L14.7456 29.2131L14.8808 29.5H15.198V29ZM9.99797 17.96L10.4503 17.7469L10.3151 17.46H9.99797V17.96ZM5.75797 17.96V17.46H5.25797V17.96H5.75797ZM5.75797 29V29.5H6.25797V29H5.75797ZM5.75797 14.2H5.25797V14.7H5.75797V14.2ZM14.358 12.96L13.9987 12.6123L13.9987 12.6123L14.358 12.96ZM14.358 6.48L13.9984 6.82756L14.0044 6.83355L14.358 6.48ZM5.75797 5.28V4.78H5.25797V5.28H5.75797ZM1.13797 29V0.999998H0.137969V29H1.13797ZM0.637969 1.5H10.918V0.499998H0.637969V1.5ZM10.918 1.5C13.1045 1.5 14.8561 1.878 16.2014 2.6005L16.6745 1.7195C15.1399 0.895331 13.2114 0.499998 10.918 0.499998V1.5ZM16.2111 2.60558C17.5982 3.31171 18.6133 4.27131 19.2801 5.4813L20.1559 4.9987C19.3826 3.59536 18.2111 2.50162 16.6648 1.71442L16.2111 2.60558ZM19.2822 5.48513C19.9571 6.68497 20.298 8.02621 20.298 9.52H21.298C21.298 7.86712 20.9188 6.35503 20.1538 4.99487L19.2822 5.48513ZM20.298 9.52C20.298 11.1326 19.8712 12.5986 19.0171 13.93L19.8588 14.47C20.8181 12.9747 21.298 11.3207 21.298 9.52H20.298ZM19.0135 13.9357C18.2064 15.232 16.9244 16.1957 15.1179 16.8063L15.4381 17.7537C17.4182 17.0843 18.9096 15.9946 19.8624 14.4643L19.0135 13.9357ZM14.8298 17.5018L20.6298 29.2218L21.5261 28.7782L15.7261 17.0582L14.8298 17.5018ZM21.078 28.5H15.198V29.5H21.078V28.5ZM15.6503 28.7869L10.4503 17.7469L9.54563 18.1731L14.7456 29.2131L15.6503 28.7869ZM9.99797 17.46H5.75797V18.46H9.99797V17.46ZM5.25797 17.96V29H6.25797V17.96H5.25797ZM5.75797 28.5H0.637969V29.5H5.75797V28.5ZM5.75797 14.7H10.598V13.7H5.75797V14.7ZM10.598 14.7C12.3747 14.7 13.7857 14.2703 14.7173 13.3077L13.9987 12.6123C13.3303 13.303 12.2345 13.7 10.598 13.7V14.7ZM14.7173 13.3077C15.6237 12.3711 16.058 11.1445 16.058 9.68H15.058C15.058 10.9355 14.6922 11.8956 13.9987 12.6123L14.7173 13.3077ZM16.058 9.68C16.058 8.23954 15.6219 7.03681 14.7115 6.12645L14.0044 6.83355C14.694 7.52318 15.058 8.45379 15.058 9.68H16.058ZM14.7175 6.13249C13.8074 5.19106 12.3769 4.78 10.558 4.78V5.78C12.2591 5.78 13.3619 6.16894 13.9985 6.82751L14.7175 6.13249ZM10.558 4.78H5.75797V5.78H10.558V4.78ZM5.25797 5.28V14.2H6.25797V5.28H5.25797ZM28.5489 28.2L28.7904 27.7622L28.7904 27.7622L28.5489 28.2ZM24.8689 13.76L24.4308 13.519L24.4277 13.5247L24.8689 13.76ZM28.4689 10.04L28.7194 10.4727L28.7218 10.4713L28.4689 10.04ZM39.0689 9.96L38.8208 10.3941L38.8208 10.3941L39.0689 9.96ZM42.5489 13.48L42.1114 13.7222L42.1167 13.7314L42.5489 13.48ZM43.7889 19.32L43.2906 19.2785L43.2889 19.2992V19.32H43.7889ZM43.7489 20.32V20.82H44.2119L44.2474 20.3583L43.7489 20.32ZM28.6689 20.32V19.82H28.1332L28.1701 20.3544L28.6689 20.32ZM30.2689 23.96L29.931 24.3286L29.9361 24.3331L30.2689 23.96ZM36.4289 24.6L36.7025 25.0185L36.7063 25.016L36.4289 24.6ZM38.0289 22.76V22.26H37.7098L37.5754 22.5494L38.0289 22.76ZM43.2289 22.76L43.7081 22.9027L43.8996 22.26H43.2289V22.76ZM41.3489 26.2L40.9672 25.877L40.9665 25.8779L41.3489 26.2ZM38.1489 28.6L37.9406 28.1455L37.9369 28.1472L38.1489 28.6ZM30.5889 13.92L30.8817 14.3254L30.8889 14.32L30.5889 13.92ZM28.7489 17.12L28.2573 17.029L28.1478 17.62H28.7489V17.12ZM38.6289 17.12V17.62H39.1605L39.128 17.0894L38.6289 17.12ZM37.1889 14L37.519 13.6244L37.519 13.6244L37.1889 14ZM33.8689 28.98C31.942 28.98 30.2538 28.5696 28.7904 27.7622L28.3074 28.6378C29.9373 29.5371 31.7958 29.98 33.8689 29.98V28.98ZM28.7904 27.7622C27.3251 26.9537 26.1783 25.8199 25.3435 24.3527L24.4743 24.8473C25.3995 26.4734 26.6794 27.7396 28.3074 28.6378L28.7904 27.7622ZM25.3435 24.3527C24.512 22.8914 24.0889 21.1922 24.0889 19.24H23.0889C23.0889 21.3411 23.5458 23.2153 24.4743 24.8473L25.3435 24.3527ZM24.0889 19.24C24.0889 17.2577 24.5002 15.5138 25.3101 13.9953L24.4277 13.5247C23.5309 15.2062 23.0889 17.1156 23.0889 19.24H24.0889ZM25.307 14.001C26.1449 12.4775 27.2815 11.3052 28.7194 10.4727L28.2184 9.60729C26.6163 10.5348 25.3529 11.8425 24.4308 13.519L25.307 14.001ZM28.7218 10.4713C30.1802 9.61641 31.9034 9.18 33.9089 9.18V8.18C31.7544 8.18 29.851 8.65026 28.216 9.60865L28.7218 10.4713ZM33.9089 9.18C35.7802 9.18 37.4126 9.5894 38.8208 10.3941L39.317 9.52588C37.7386 8.62393 35.9309 8.18 33.9089 8.18V9.18ZM38.8208 10.3941C40.2353 11.2024 41.3295 12.3096 42.1115 13.7222L42.9864 13.2378C42.115 11.6637 40.8892 10.4243 39.317 9.52588L38.8208 10.3941ZM42.1167 13.7314C42.9226 15.1165 43.3289 16.6687 43.3289 18.4H44.3289C44.3289 16.5046 43.8819 14.7768 42.9811 13.2286L42.1167 13.7314ZM43.3289 18.4C43.3289 18.6782 43.3163 18.971 43.2906 19.2785L44.2872 19.3615C44.3149 19.029 44.3289 18.7084 44.3289 18.4H43.3289ZM43.2889 19.32C43.2889 19.6262 43.2761 19.9467 43.2504 20.2817L44.2474 20.3583C44.275 20 44.2889 19.6538 44.2889 19.32H43.2889ZM43.7489 19.82H28.6689V20.82H43.7489V19.82ZM28.1701 20.3544C28.2838 22.003 28.859 23.3458 29.931 24.3286L30.6068 23.5914C29.7588 22.8142 29.2674 21.7303 29.1677 20.2856L28.1701 20.3544ZM29.9361 24.3331C31.0192 25.2991 32.3261 25.78 33.8289 25.78V24.78C32.5584 24.78 31.492 24.3809 30.6017 23.5869L29.9361 24.3331ZM33.8289 25.78C34.9413 25.78 35.9093 25.5371 36.7025 25.0185L36.1553 24.1815C35.5618 24.5695 34.7965 24.78 33.8289 24.78V25.78ZM36.7063 25.016C37.4987 24.4878 38.095 23.805 38.4824 22.9706L37.5754 22.5494C37.2695 23.2084 36.7992 23.7522 36.1516 24.184L36.7063 25.016ZM38.0289 23.26H43.2289V22.26H38.0289V23.26ZM42.7497 22.6173C42.3969 23.8017 41.8045 24.8875 40.9672 25.877L41.7306 26.523C42.6533 25.4325 43.3142 24.225 43.7081 22.9027L42.7497 22.6173ZM40.9665 25.8779C40.1636 26.8313 39.1578 27.5876 37.9406 28.1455L38.3572 29.0545C39.7 28.4391 40.8275 27.5954 41.7314 26.5221L40.9665 25.8779ZM37.9369 28.1472C36.7596 28.6983 35.4071 28.98 33.8689 28.98V29.98C35.5308 29.98 37.0316 29.6751 38.3609 29.0528L37.9369 28.1472ZM33.9089 12.34C32.5525 12.34 31.3395 12.7321 30.2889 13.52L30.8889 14.32C31.7583 13.6679 32.7586 13.34 33.9089 13.34V12.34ZM30.2962 13.5147C29.2086 14.3002 28.5415 15.494 28.2573 17.029L29.2405 17.211C29.4896 15.866 30.0493 14.9265 30.8817 14.3253L30.2962 13.5147ZM28.7489 17.62H38.6289V16.62H28.7489V17.62ZM39.128 17.0894C39.0409 15.6669 38.5112 14.4964 37.519 13.6244L36.8588 14.3756C37.6266 15.0503 38.0569 15.9597 38.1298 17.1506L39.128 17.0894ZM37.519 13.6244C36.537 12.7615 35.322 12.34 33.9089 12.34V13.34C35.1091 13.34 36.0808 13.6918 36.8589 14.3756L37.519 13.6244ZM52.4552 28.2L52.6967 27.7622L52.6967 27.7622L52.4552 28.2ZM48.7752 13.76L48.337 13.519L48.334 13.5247L48.7752 13.76ZM52.3752 10.04L52.6257 10.4727L52.628 10.4713L52.3752 10.04ZM62.9752 9.96L62.7271 10.3941L62.7271 10.3941L62.9752 9.96ZM66.4552 13.48L66.0176 13.7222L66.023 13.7314L66.4552 13.48ZM67.6952 19.32L67.1969 19.2785L67.1952 19.2992V19.32H67.6952ZM67.6552 20.32V20.82H68.1182L68.1537 20.3583L67.6552 20.32ZM52.5752 20.32V19.82H52.0395L52.0763 20.3544L52.5752 20.32ZM54.1752 23.96L53.8373 24.3286L53.8423 24.3331L54.1752 23.96ZM60.3352 24.6L60.6088 25.0185L60.6125 25.016L60.3352 24.6ZM61.9352 22.76V22.26H61.616L61.4817 22.5494L61.9352 22.76ZM67.1352 22.76L67.6143 22.9027L67.8058 22.26H67.1352V22.76ZM65.2552 26.2L64.8735 25.877L64.8727 25.8779L65.2552 26.2ZM62.0552 28.6L61.8468 28.1455L61.8432 28.1472L62.0552 28.6ZM54.4952 13.92L54.7879 14.3254L54.7952 14.32L54.4952 13.92ZM52.6552 17.12L52.1635 17.029L52.0541 17.62H52.6552V17.12ZM62.5352 17.12V17.62H63.0667L63.0342 17.0894L62.5352 17.12ZM61.0952 14L61.4252 13.6244L61.4252 13.6244L61.0952 14ZM57.7752 28.98C55.8483 28.98 54.1601 28.5696 52.6967 27.7622L52.2136 28.6378C53.8436 29.5371 55.702 29.98 57.7752 29.98V28.98ZM52.6967 27.7622C51.2313 26.9537 50.0845 25.8199 49.2497 24.3527L48.3806 24.8473C49.3058 26.4734 50.5857 27.7396 52.2136 28.6378L52.6967 27.7622ZM49.2497 24.3527C48.4183 22.8914 47.9952 21.1922 47.9952 19.24H46.9952C46.9952 21.3411 47.452 23.2153 48.3806 24.8473L49.2497 24.3527ZM47.9952 19.24C47.9952 17.2577 48.4065 15.5138 49.2163 13.9953L48.334 13.5247C47.4372 15.2062 46.9952 17.1156 46.9952 19.24H47.9952ZM49.2133 14.001C50.0512 12.4775 51.1877 11.3052 52.6257 10.4727L52.1246 9.60729C50.5226 10.5348 49.2591 11.8425 48.337 13.519L49.2133 14.001ZM52.628 10.4713C54.0864 9.61641 55.8096 9.18 57.8152 9.18V8.18C55.6607 8.18 53.7572 8.65026 52.1223 9.60865L52.628 10.4713ZM57.8152 9.18C59.6865 9.18 61.3188 9.5894 62.7271 10.3941L63.2232 9.52588C61.6448 8.62393 59.8372 8.18 57.8152 8.18V9.18ZM62.7271 10.3941C64.1415 11.2024 65.2358 12.3096 66.0177 13.7222L66.8926 13.2378C66.0212 11.6637 64.7954 10.4243 63.2232 9.52588L62.7271 10.3941ZM66.023 13.7314C66.8288 15.1165 67.2352 16.6687 67.2352 18.4H68.2352C68.2352 16.5046 67.7881 14.7768 66.8873 13.2286L66.023 13.7314ZM67.2352 18.4C67.2352 18.6782 67.2225 18.971 67.1969 19.2785L68.1934 19.3615C68.2211 19.029 68.2352 18.7084 68.2352 18.4H67.2352ZM67.1952 19.32C67.1952 19.6262 67.1824 19.9467 67.1566 20.2817L68.1537 20.3583C68.1812 20 68.1952 19.6538 68.1952 19.32H67.1952ZM67.6552 19.82H52.5752V20.82H67.6552V19.82ZM52.0763 20.3544C52.19 22.003 52.7652 23.3458 53.8373 24.3286L54.513 23.5914C53.6651 22.8142 53.1736 21.7303 53.074 20.2856L52.0763 20.3544ZM53.8423 24.3331C54.9254 25.2991 56.2323 25.78 57.7352 25.78V24.78C56.4647 24.78 55.3982 24.3809 54.508 23.5869L53.8423 24.3331ZM57.7352 25.78C58.8476 25.78 59.8156 25.5371 60.6088 25.0185L60.0615 24.1815C59.4681 24.5695 58.7028 24.78 57.7352 24.78V25.78ZM60.6125 25.016C61.4049 24.4878 62.0013 23.805 62.3887 22.9706L61.4817 22.5494C61.1757 23.2084 60.7054 23.7522 60.0578 24.184L60.6125 25.016ZM61.9352 23.26H67.1352V22.26H61.9352V23.26ZM66.656 22.6173C66.3032 23.8017 65.7108 24.8875 64.8735 25.877L65.6369 26.523C66.5595 25.4325 67.2205 24.225 67.6143 22.9027L66.656 22.6173ZM64.8727 25.8779C64.0699 26.8313 63.064 27.5876 61.8468 28.1455L62.2635 29.0545C63.6063 28.4391 64.7338 27.5954 65.6376 26.5221L64.8727 25.8779ZM61.8432 28.1472C60.6658 28.6983 59.3133 28.98 57.7752 28.98V29.98C59.437 29.98 60.9378 29.6751 62.2671 29.0528L61.8432 28.1472ZM57.8152 12.34C56.4588 12.34 55.2457 12.7321 54.1952 13.52L54.7952 14.32C55.6646 13.6679 56.6649 13.34 57.8152 13.34V12.34ZM54.2024 13.5147C53.1148 14.3002 52.4478 15.494 52.1635 17.029L53.1468 17.211C53.3959 15.866 53.9555 14.9265 54.7879 14.3253L54.2024 13.5147ZM52.6552 17.62H62.5352V16.62H52.6552V17.62ZM63.0342 17.0894C62.9471 15.6669 62.4174 14.4964 61.4252 13.6244L60.7651 14.3756C61.5329 15.0503 61.9632 15.9597 62.0361 17.1506L63.0342 17.0894ZM61.4252 13.6244C60.4433 12.7615 59.2283 12.34 57.8152 12.34V13.34C59.0154 13.34 59.9871 13.6918 60.7651 14.3756L61.4252 13.6244ZM72.0414 29H71.5414V29.5H72.0414V29ZM72.0414 0.199999V-0.300001H71.5414V0.199999H72.0414ZM77.1614 0.199999H77.6614V-0.300001H77.1614V0.199999ZM77.1614 29V29.5H77.6614V29H77.1614ZM72.5414 29V0.199999H71.5414V29H72.5414ZM72.0414 0.699999H77.1614V-0.300001H72.0414V0.699999ZM76.6614 0.199999V29H77.6614V0.199999H76.6614ZM77.1614 28.5H72.0414V29.5H77.1614V28.5ZM82.513 29H82.013V29.5H82.513V29ZM82.513 0.999998V0.499998H82.013V0.999998H82.513ZM98.313 2.16L98.0763 2.6006L98.0861 2.60558L98.313 2.16ZM101.593 5.24L101.155 5.48131L101.157 5.48513L101.593 5.24ZM101.313 14.2L100.892 13.93L100.889 13.9357L101.313 14.2ZM97.153 17.28L96.9929 16.8063L96.4513 16.9894L96.7048 17.5018L97.153 17.28ZM102.953 29V29.5H103.758L103.401 28.7782L102.953 29ZM97.073 29L96.6206 29.2131L96.7558 29.5H97.073V29ZM91.873 17.96L92.3253 17.7469L92.1901 17.46H91.873V17.96ZM87.633 17.96V17.46H87.133V17.96H87.633ZM87.633 29V29.5H88.133V29H87.633ZM87.633 14.2H87.133V14.7H87.633V14.2ZM96.233 12.96L95.8737 12.6123L95.8737 12.6123L96.233 12.96ZM96.233 6.48L95.8734 6.82756L95.8794 6.83355L96.233 6.48ZM87.633 5.28V4.78H87.133V5.28H87.633ZM83.013 29V0.999998H82.013V29H83.013ZM82.513 1.5H92.793V0.499998H82.513V1.5ZM92.793 1.5C94.9795 1.5 96.7311 1.878 98.0764 2.6005L98.5495 1.7195C97.0149 0.895331 95.0864 0.499998 92.793 0.499998V1.5ZM98.0861 2.60558C99.4732 3.31171 100.488 4.27131 101.155 5.4813L102.031 4.9987C101.258 3.59536 100.086 2.50162 98.5398 1.71442L98.0861 2.60558ZM101.157 5.48513C101.832 6.68497 102.173 8.02621 102.173 9.52H103.173C103.173 7.86712 102.794 6.35503 102.029 4.99487L101.157 5.48513ZM102.173 9.52C102.173 11.1326 101.746 12.5986 100.892 13.93L101.734 14.47C102.693 12.9747 103.173 11.3207 103.173 9.52H102.173ZM100.889 13.9357C100.081 15.232 98.7994 16.1957 96.9929 16.8063L97.3131 17.7537C99.2932 17.0843 100.785 15.9946 101.737 14.4643L100.889 13.9357ZM96.7048 17.5018L102.505 29.2218L103.401 28.7782L97.6011 17.0582L96.7048 17.5018ZM102.953 28.5H97.073V29.5H102.953V28.5ZM97.5253 28.7869L92.3253 17.7469L91.4206 18.1731L96.6206 29.2131L97.5253 28.7869ZM91.873 17.46H87.633V18.46H91.873V17.46ZM87.133 17.96V29H88.133V17.96H87.133ZM87.633 28.5H82.513V29.5H87.633V28.5ZM87.633 14.7H92.473V13.7H87.633V14.7ZM92.473 14.7C94.2497 14.7 95.6607 14.2703 96.5923 13.3077L95.8737 12.6123C95.2053 13.303 94.1095 13.7 92.473 13.7V14.7ZM96.5923 13.3077C97.4987 12.3711 97.933 11.1445 97.933 9.68H96.933C96.933 10.9355 96.5672 11.8956 95.8737 12.6123L96.5923 13.3077ZM97.933 9.68C97.933 8.23954 97.4969 7.03681 96.5865 6.12645L95.8794 6.83355C96.569 7.52318 96.933 8.45379 96.933 9.68H97.933ZM96.5925 6.13249C95.6824 5.19106 94.2519 4.78 92.433 4.78V5.78C94.1341 5.78 95.2369 6.16894 95.8735 6.82751L96.5925 6.13249ZM92.433 4.78H87.633V5.78H92.433V4.78ZM87.133 5.28V14.2H88.133V5.28H87.133ZM109.213 28.68L108.985 29.1251L108.993 29.1294L109.213 28.68ZM106.773 26.48L106.342 26.7335L106.342 26.7335L106.773 26.48ZM108.133 19L108.444 19.3911L108.444 19.3911L108.133 19ZM119.653 17.28V17.78H120.153V17.28H119.653ZM118.493 13.8L118.811 13.4148L118.811 13.4148L118.493 13.8ZM112.893 13.6L113.156 14.0249L113.167 14.0182L112.893 13.6ZM111.453 15.76V16.26H111.865L111.943 15.8554L111.453 15.76ZM106.453 15.76L105.955 15.7139L105.904 16.26H106.453V15.76ZM107.893 12L107.502 11.6876L107.497 11.6937L107.893 12ZM111.173 9.56L111.366 10.0211L111.374 10.0177L111.173 9.56ZM122.333 10.8L122.005 11.1774L122.005 11.1774L122.333 10.8ZM124.773 29V29.5H125.273V29H124.773ZM120.413 29L119.918 29.0742L119.982 29.5H120.413V29ZM119.933 25.8L120.427 25.7258L120.208 24.2625L119.495 25.559L119.933 25.8ZM117.453 28.44L117.18 28.0207L117.175 28.024L117.453 28.44ZM117.973 24.04L117.594 23.7137L117.589 23.7199L117.973 24.04ZM119.533 20.48L120.027 20.5546L120.114 19.98H119.533V20.48ZM112.253 21.24L112.569 21.6271L112.579 21.6184L112.253 21.24ZM112.253 24.84L112.547 24.4356L112.547 24.4356L112.253 24.84ZM113.413 28.98C111.753 28.98 110.435 28.72 109.432 28.2306L108.993 29.1294C110.177 29.7067 111.659 29.98 113.413 29.98V28.98ZM109.441 28.235C108.417 27.7109 107.681 27.0384 107.204 26.2265L106.342 26.7335C106.931 27.7349 107.821 28.5291 108.985 29.125L109.441 28.235ZM107.204 26.2265C106.717 25.3998 106.473 24.4879 106.473 23.48H105.473C105.473 24.6588 105.761 25.7469 106.342 26.7335L107.204 26.2265ZM106.473 23.48C106.473 21.7924 107.123 20.443 108.444 19.3911L107.821 18.6089C106.262 19.8503 105.473 21.4876 105.473 23.48H106.473ZM108.444 19.3911C109.758 18.345 111.786 17.78 114.613 17.78V16.78C111.68 16.78 109.387 17.3617 107.821 18.6089L108.444 19.3911ZM114.613 17.78H119.653V16.78H114.613V17.78ZM120.153 17.28V16.8H119.153V17.28H120.153ZM120.153 16.8C120.153 15.347 119.737 14.1805 118.811 13.4148L118.174 14.1852C118.795 14.6995 119.153 15.533 119.153 16.8H120.153ZM118.811 13.4148C117.936 12.6902 116.858 12.34 115.613 12.34V13.34C116.66 13.34 117.503 13.6298 118.174 14.1852L118.811 13.4148ZM115.613 12.34C114.488 12.34 113.483 12.6153 112.619 13.1818L113.167 14.0182C113.849 13.5714 114.657 13.34 115.613 13.34V12.34ZM112.629 13.1752C111.728 13.7345 111.173 14.5793 110.962 15.6646L111.943 15.8554C112.106 15.0207 112.511 14.4255 113.156 14.0248L112.629 13.1752ZM111.453 15.26H106.453V16.26H111.453V15.26ZM106.951 15.8061C107.076 14.4537 107.524 13.2923 108.288 12.3063L107.497 11.6937C106.608 12.841 106.096 14.1863 105.955 15.7139L106.951 15.8061ZM108.283 12.3123C109.081 11.3147 110.105 10.5506 111.366 10.021L110.979 9.09901C109.573 9.68938 108.411 10.5519 107.502 11.6877L108.283 12.3123ZM111.374 10.0177C112.636 9.46245 114.059 9.18 115.653 9.18V8.18C113.939 8.18 112.376 8.48422 110.971 9.10234L111.374 10.0177ZM115.653 9.18C118.397 9.18 120.494 9.86505 122.005 11.1774L122.661 10.4226C120.918 8.90828 118.562 8.18 115.653 8.18V9.18ZM122.005 11.1774C123.5 12.4768 124.273 14.3264 124.273 16.8H125.273C125.273 14.1003 124.418 11.9499 122.661 10.4226L122.005 11.1774ZM124.273 16.8V29H125.273V16.8H124.273ZM124.773 28.5H120.413V29.5H124.773V28.5ZM120.907 28.9258L120.427 25.7258L119.438 25.8742L119.918 29.0742L120.907 28.9258ZM119.495 25.559C118.949 26.5503 118.181 27.3702 117.18 28.0208L117.725 28.8592C118.858 28.1231 119.743 27.1831 120.371 26.041L119.495 25.559ZM117.175 28.024C116.24 28.6474 114.999 28.98 113.413 28.98V29.98C115.133 29.98 116.585 29.6192 117.73 28.856L117.175 28.024ZM114.573 25.98C116.159 25.98 117.445 25.4544 118.357 24.3601L117.589 23.7199C116.9 24.5456 115.92 24.98 114.573 24.98V25.98ZM118.352 24.3663C119.247 23.3261 119.802 22.0488 120.027 20.5546L119.038 20.4054C118.837 21.7379 118.351 22.8339 117.594 23.7137L118.352 24.3663ZM119.533 19.98H115.173V20.98H119.533V19.98ZM115.173 19.98C113.775 19.98 112.65 20.2358 111.926 20.8616L112.579 21.6184C113.028 21.2309 113.851 20.98 115.173 20.98V19.98ZM111.936 20.853C111.24 21.4222 110.873 22.1612 110.873 23.04H111.873C111.873 22.4788 112.092 22.0178 112.569 21.627L111.936 20.853ZM110.873 23.04C110.873 23.9609 111.233 24.7166 111.959 25.2444L112.547 24.4356C112.099 24.1101 111.873 23.6657 111.873 23.04H110.873ZM111.959 25.2444C112.655 25.7505 113.541 25.98 114.573 25.98V24.98C113.684 24.98 113.024 24.7828 112.547 24.4356L111.959 25.2444ZM133.225 27.48L133.54 27.0912L133.54 27.0912L133.225 27.48ZM131.345 13.44H131.845V12.94H131.345V13.44ZM127.945 13.44H127.445V13.94H127.945V13.44ZM127.945 9.16V8.66H127.445V9.16H127.945ZM131.345 9.16V9.66H131.792L131.842 9.21603L131.345 9.16ZM131.945 3.84V3.34H131.498L131.448 3.78396L131.945 3.84ZM136.465 3.84H136.965V3.34H136.465V3.84ZM136.465 9.16H135.965V9.66H136.465V9.16ZM141.825 9.16H142.325V8.66H141.825V9.16ZM141.825 13.44V13.94H142.325V13.44H141.825ZM136.465 13.44V12.94H135.965V13.44H136.465ZM137.065 24.12L136.724 24.4855L136.737 24.4972L136.75 24.5081L137.065 24.12ZM141.705 24.64H142.205V24.14H141.705V24.64ZM141.705 29V29.5H142.205V29H141.705ZM138.225 28.5C136.226 28.5 134.681 28.0139 133.54 27.0912L132.911 27.8688C134.276 28.9728 136.064 29.5 138.225 29.5V28.5ZM133.54 27.0912C132.46 26.218 131.845 24.6065 131.845 22.08H130.845C130.845 24.7268 131.484 26.7153 132.911 27.8688L133.54 27.0912ZM131.845 22.08V13.44H130.845V22.08H131.845ZM131.345 12.94H127.945V13.94H131.345V12.94ZM128.445 13.44V9.16H127.445V13.44H128.445ZM127.945 9.66H131.345V8.66H127.945V9.66ZM131.842 9.21603L132.442 3.89604L131.448 3.78396L130.848 9.10396L131.842 9.21603ZM131.945 4.34H136.465V3.34H131.945V4.34ZM135.965 3.84V9.16H136.965V3.84H135.965ZM136.465 9.66H141.825V8.66H136.465V9.66ZM141.325 9.16V13.44H142.325V9.16H141.325ZM141.825 12.94H136.465V13.94H141.825V12.94ZM135.965 13.44V22.12H136.965V13.44H135.965ZM135.965 22.12C135.965 23.1209 136.168 23.967 136.724 24.4855L137.406 23.7545C137.162 23.5263 136.965 23.0391 136.965 22.12H135.965ZM136.75 24.5081C137.315 24.9669 138.182 25.14 139.225 25.14V24.14C138.242 24.14 137.669 23.9664 137.38 23.7319L136.75 24.5081ZM139.225 25.14H141.705V24.14H139.225V25.14ZM141.205 24.64V29H142.205V24.64H141.205ZM141.705 28.5H138.225V29.5H141.705V28.5ZM146.661 5.24L146.316 5.60177L146.324 5.60924L146.661 5.24ZM146.661 1.04L146.997 1.40997L146.998 1.40924L146.661 1.04ZM151.261 1.04L150.916 1.40168L150.924 1.40969L150.933 1.4173L151.261 1.04ZM151.261 5.24L150.924 4.87066L150.916 4.87832L151.261 5.24ZM146.421 29H145.921V29.5H146.421V29ZM146.421 9.16V8.66H145.921V9.16H146.421ZM151.541 9.16H152.041V8.66H151.541V9.16ZM151.541 29V29.5H152.041V29H151.541ZM148.981 5.58C148.156 5.58 147.508 5.33606 146.998 4.87076L146.324 5.60924C147.041 6.26394 147.94 6.58 148.981 6.58V5.58ZM147.006 4.87832C146.524 4.41804 146.281 3.84468 146.281 3.12H145.281C145.281 4.10199 145.625 4.94195 146.316 5.60168L147.006 4.87832ZM146.281 3.12C146.281 2.39548 146.524 1.84072 146.997 1.40997L146.325 0.670028C145.625 1.30595 145.281 2.13786 145.281 3.12H146.281ZM146.998 1.40924C147.508 0.943939 148.156 0.699999 148.981 0.699999V-0.300001C147.94 -0.300001 147.041 0.0160581 146.324 0.670755L146.998 1.40924ZM148.981 0.699999C149.807 0.699999 150.436 0.943897 150.916 1.40168L151.606 0.67832C150.913 0.0161 150.022 -0.300001 148.981 -0.300001V0.699999ZM150.933 1.4173C151.431 1.85041 151.681 2.40316 151.681 3.12H152.681C152.681 2.13017 152.318 1.29626 151.589 0.662695L150.933 1.4173ZM151.681 3.12C151.681 3.83722 151.43 4.4084 150.924 4.87076L151.598 5.60924C152.319 4.95159 152.681 4.10945 152.681 3.12H151.681ZM150.916 4.87832C150.436 5.3361 149.807 5.58 148.981 5.58V6.58C150.022 6.58 150.913 6.2639 151.606 5.60168L150.916 4.87832ZM146.921 29V9.16H145.921V29H146.921ZM146.421 9.66H151.541V8.66H146.421V9.66ZM151.041 9.16V29H152.041V9.16H151.041ZM151.541 28.5H146.421V29.5H151.541V28.5ZM156.885 29H156.385V29.5H156.885V29ZM156.885 9.16V8.66H156.385V9.16H156.885ZM161.405 9.16L161.902 9.10089L161.849 8.66H161.405V9.16ZM161.805 12.52L161.309 12.5791L161.5 14.1837L162.248 12.7516L161.805 12.52ZM164.445 9.72L164.191 9.28951L164.186 9.29213L164.445 9.72ZM174.285 11L173.91 11.3302L173.91 11.3302L174.285 11ZM176.325 29V29.5H176.825V29H176.325ZM171.205 29H170.705V29.5H171.205V29ZM170.165 14.36L170.562 14.0563L170.562 14.0563L170.165 14.36ZM163.365 14.52L162.997 14.1812L162.993 14.1866L163.365 14.52ZM162.005 29V29.5H162.505V29H162.005ZM157.385 29V9.16H156.385V29H157.385ZM156.885 9.66H161.405V8.66H156.885V9.66ZM160.909 9.21911L161.309 12.5791L162.302 12.4609L161.902 9.10089L160.909 9.21911ZM162.248 12.7516C162.819 11.6604 163.634 10.7945 164.704 10.1479L164.186 9.29213C162.963 10.0322 162.018 11.033 161.362 12.2884L162.248 12.7516ZM164.7 10.1505C165.785 9.50929 167.067 9.18 168.565 9.18V8.18C166.916 8.18 165.452 8.54404 164.191 9.28954L164.7 10.1505ZM168.565 9.18C170.905 9.18 172.663 9.91218 173.91 11.3302L174.661 10.6698C173.187 8.99448 171.132 8.18 168.565 8.18V9.18ZM173.91 11.3302C175.16 12.752 175.825 14.8811 175.825 17.8H176.825C176.825 14.7456 176.13 12.3414 174.661 10.6698L173.91 11.3302ZM175.825 17.8V29H176.825V17.8H175.825ZM176.325 28.5H171.205V29.5H176.325V28.5ZM171.705 29V18.28H170.705V29H171.705ZM171.705 18.28C171.705 16.5154 171.348 15.0839 170.562 14.0563L169.768 14.6637C170.369 15.4494 170.705 16.6313 170.705 18.28H171.705ZM170.562 14.0563C169.748 12.9918 168.499 12.5 166.925 12.5V13.5C168.285 13.5 169.195 13.9148 169.768 14.6637L170.562 14.0563ZM166.925 12.5C165.353 12.5 164.03 13.06 162.997 14.1813L163.733 14.8587C164.567 13.9533 165.618 13.5 166.925 13.5V12.5ZM162.993 14.1866C161.98 15.3185 161.505 16.8653 161.505 18.76H162.505C162.505 17.028 162.937 15.7481 163.738 14.8534L162.993 14.1866ZM161.505 18.76V29H162.505V18.76H161.505ZM162.005 28.5H156.885V29.5H162.005V28.5ZM186.941 22.76L187.066 22.2759L186.789 22.2045L186.588 22.4064L186.941 22.76ZM185.461 24.24L185.108 23.8864L184.629 24.3651L185.227 24.6819L185.461 24.24ZM187.301 24.84L187.2 25.3296L187.2 25.3296L187.301 24.84ZM191.061 25.32L191.015 25.8179L191.016 25.8179L191.061 25.32ZM196.821 27.2L196.499 27.582L196.821 27.2ZM197.661 34.72L197.235 34.4579L197.232 34.4628L197.661 34.72ZM194.701 37.28L194.485 36.8292L194.477 36.8328L194.701 37.28ZM182.741 36.68L183.003 36.2541L182.998 36.2513L182.741 36.68ZM182.741 27.32L183.042 27.7193L183.717 27.2107L182.946 26.864L182.741 27.32ZM181.341 26.56L181.05 26.9669L181.057 26.9716L181.064 26.976L181.341 26.56ZM180.341 25.72H179.841V25.9271L179.988 26.0736L180.341 25.72ZM180.341 24.8L179.978 24.4565L179.841 24.601V24.8H180.341ZM183.821 21.12L184.184 21.4635L184.541 21.0869L184.151 20.7445L183.821 21.12ZM182.461 12.24L182.034 11.9797L182.03 11.9874L182.461 12.24ZM185.261 9.64L185.026 9.19882L185.026 9.19882L185.261 9.64ZM192.741 9.16L192.583 9.63434L192.66 9.66H192.741V9.16ZM200.261 9.16H200.761V8.66H200.261V9.16ZM200.261 12.28L200.296 12.7788L200.761 12.7459V12.28H200.261ZM196.861 12.52L196.826 12.0212L196.062 12.0752L196.419 12.7529L196.861 12.52ZM196.701 19.52L196.27 19.2674L196.701 19.52ZM193.901 22.12L193.67 21.6767L193.666 21.6788L193.901 22.12ZM192.181 18.32L191.867 17.931L191.859 17.9371L192.181 18.32ZM192.181 13.52L191.859 13.9029L191.867 13.909L192.181 13.52ZM186.981 13.52L186.659 13.1371L186.659 13.1371L186.981 13.52ZM186.981 18.32L187.303 17.9371L187.303 17.9371L186.981 18.32ZM186.181 33.64L186.42 33.2005L186.415 33.1981L186.181 33.64ZM192.701 33.6L192.433 33.1775L192.424 33.184L192.701 33.6ZM193.101 29.72L192.757 30.0831L192.767 30.0916L193.101 29.72ZM190.021 28.84L189.985 29.3387L189.987 29.3388L190.021 28.84ZM186.981 28.48L187.066 27.9872L186.893 27.9576L186.74 28.0422L186.981 28.48ZM185.301 29.88L184.888 29.5977L184.883 29.6052L184.878 29.613L185.301 29.88ZM189.621 22.58C188.698 22.58 187.847 22.4775 187.066 22.2759L186.816 23.2441C187.688 23.4692 188.624 23.58 189.621 23.58V22.58ZM186.588 22.4064L185.108 23.8864L185.815 24.5936L187.295 23.1136L186.588 22.4064ZM185.227 24.6819C185.738 24.9525 186.402 25.1646 187.2 25.3296L187.402 24.3504C186.653 24.1954 186.091 24.0075 185.695 23.7981L185.227 24.6819ZM187.2 25.3296C188.003 25.4957 189.28 25.6577 191.015 25.8179L191.107 24.8221C189.376 24.6623 188.146 24.5043 187.402 24.3504L187.2 25.3296ZM191.016 25.8179C193.617 26.0544 195.414 26.6665 196.499 27.582L197.144 26.818C195.828 25.7069 193.785 25.0656 191.106 24.8221L191.016 25.8179ZM196.499 27.582C197.57 28.4866 198.121 29.7379 198.121 31.4H199.121C199.121 29.4887 198.472 27.94 197.144 26.818L196.499 27.582ZM198.121 31.4C198.121 32.4769 197.829 33.4934 197.235 34.458L198.087 34.982C198.773 33.8666 199.121 32.6697 199.121 31.4H198.121ZM197.232 34.4628C196.652 35.4307 195.747 36.2234 194.485 36.8292L194.917 37.7308C196.322 37.0566 197.391 36.1426 198.09 34.9772L197.232 34.4628ZM194.477 36.8328C193.235 37.4538 191.612 37.78 189.581 37.78V38.78C191.71 38.78 193.5 38.4395 194.925 37.7272L194.477 36.8328ZM189.581 37.78C186.812 37.78 184.633 37.257 183.003 36.2542L182.479 37.1058C184.316 38.2363 186.696 38.78 189.581 38.78V37.78ZM182.998 36.2513C181.423 35.3062 180.641 33.9001 180.641 31.96H179.641C179.641 34.2332 180.592 35.9738 182.484 37.1087L182.998 36.2513ZM180.641 31.96C180.641 30.3645 181.404 28.9542 183.042 27.7193L182.44 26.9207C180.612 28.2992 179.641 29.9821 179.641 31.96H180.641ZM182.946 26.864C182.433 26.633 181.991 26.3925 181.618 26.144L181.064 26.976C181.491 27.2608 181.983 27.527 182.536 27.776L182.946 26.864ZM181.632 26.1531C181.278 25.9008 180.967 25.6384 180.695 25.3664L179.988 26.0736C180.302 26.3883 180.657 26.6859 181.05 26.9669L181.632 26.1531ZM180.841 25.72V24.8H179.841V25.72H180.841ZM180.704 25.1435L184.184 21.4635L183.458 20.7765L179.978 24.4565L180.704 25.1435ZM184.151 20.7445C182.717 19.4833 182.001 17.8755 182.001 15.88H181.001C181.001 18.1512 181.832 20.0367 183.491 21.4955L184.151 20.7445ZM182.001 15.88C182.001 14.6306 182.3 13.5052 182.893 12.4926L182.03 11.9874C181.342 13.1614 181.001 14.4627 181.001 15.88H182.001ZM182.888 12.5003C183.505 11.4881 184.37 10.6818 185.496 10.0812L185.026 9.19882C183.752 9.87819 182.75 10.8052 182.034 11.9797L182.888 12.5003ZM185.496 10.0812C186.608 9.48842 187.976 9.18 189.621 9.18V8.18C187.853 8.18 186.314 8.51158 185.026 9.19882L185.496 10.0812ZM189.621 9.18C190.693 9.18 191.679 9.33305 192.583 9.63434L192.899 8.68566C191.883 8.34695 190.789 8.18 189.621 8.18V9.18ZM192.741 9.66H200.261V8.66H192.741V9.66ZM199.761 9.16V12.28H200.761V9.16H199.761ZM200.226 11.7812L196.826 12.0212L196.896 13.0188L200.296 12.7788L200.226 11.7812ZM196.419 12.7529C196.912 13.6893 197.161 14.7285 197.161 15.88H198.161C198.161 14.5781 197.877 13.3773 197.304 12.2871L196.419 12.7529ZM197.161 15.88C197.161 17.1294 196.862 18.2548 196.27 19.2674L197.133 19.7726C197.82 18.5986 198.161 17.2973 198.161 15.88H197.161ZM196.27 19.2674C195.681 20.2722 194.821 21.076 193.67 21.6767L194.132 22.5633C195.434 21.884 196.441 20.9545 197.133 19.7726L196.27 19.2674ZM193.666 21.6788C192.552 22.2727 191.21 22.58 189.621 22.58V23.58C191.339 23.58 192.85 23.2473 194.136 22.5612L193.666 21.6788ZM189.621 19.66C190.755 19.66 191.729 19.3526 192.503 18.7029L191.859 17.9371C191.3 18.4074 190.567 18.66 189.621 18.66V19.66ZM192.495 18.709C193.326 18.0376 193.721 17.0829 193.721 15.92H192.721C192.721 16.8371 192.422 17.4824 191.867 17.931L192.495 18.709ZM193.721 15.92C193.721 14.7571 193.326 13.8024 192.495 13.131L191.867 13.909C192.422 14.3576 192.721 15.0029 192.721 15.92H193.721ZM192.503 13.1371C191.729 12.4874 190.755 12.18 189.621 12.18V13.18C190.567 13.18 191.3 13.4326 191.859 13.9029L192.503 13.1371ZM189.621 12.18C188.441 12.18 187.437 12.4837 186.659 13.1371L187.303 13.9029C187.858 13.4363 188.614 13.18 189.621 13.18V12.18ZM186.659 13.1371C185.858 13.8108 185.481 14.764 185.481 15.92H186.481C186.481 14.996 186.771 14.3492 187.303 13.9029L186.659 13.1371ZM185.481 15.92C185.481 17.076 185.858 18.0292 186.659 18.7029L187.303 17.9371C186.771 17.4908 186.481 16.844 186.481 15.92H185.481ZM186.659 18.7029C187.437 19.3563 188.441 19.66 189.621 19.66V18.66C188.614 18.66 187.858 18.4037 187.303 17.9371L186.659 18.7029ZM184.321 31.44C184.321 32.0125 184.454 32.5363 184.736 32.9929C185.017 33.4484 185.43 33.8082 185.947 34.0819L186.415 33.1981C186.025 32.9918 185.758 32.7449 185.586 32.4671C185.415 32.1903 185.321 31.8542 185.321 31.44H184.321ZM185.943 34.0794C186.966 34.6347 188.185 34.9 189.581 34.9V33.9C188.31 33.9 187.263 33.6586 186.42 33.2006L185.943 34.0794ZM189.581 34.9C190.928 34.9 192.073 34.6195 192.978 34.016L192.424 33.184C191.729 33.6471 190.794 33.9 189.581 33.9V34.9ZM192.969 34.0224C193.9 33.4324 194.401 32.5864 194.401 31.52H193.401C193.401 32.2136 193.102 32.7542 192.434 33.1776L192.969 34.0224ZM194.401 31.52C194.401 30.6588 194.075 29.9235 193.436 29.3484L192.767 30.0916C193.194 30.4765 193.401 30.9412 193.401 31.52H194.401ZM193.445 29.357C193.11 29.0401 192.642 28.8173 192.088 28.6592C191.53 28.4997 190.85 28.3959 190.055 28.3412L189.987 29.3388C190.739 29.3907 191.345 29.4869 191.814 29.6208C192.287 29.756 192.585 29.9199 192.757 30.083L193.445 29.357ZM190.058 28.3413C188.978 28.2623 187.981 28.1441 187.066 27.9872L186.897 28.9728C187.848 29.1359 188.878 29.2577 189.985 29.3387L190.058 28.3413ZM186.74 28.0422C185.926 28.4912 185.294 29.0045 184.888 29.5977L185.714 30.1623C186.001 29.7421 186.49 29.3221 187.223 28.9178L186.74 28.0422ZM184.878 29.613C184.514 30.1894 184.321 30.8008 184.321 31.44H185.321C185.321 31.0125 185.448 30.5839 185.724 30.147L184.878 29.613ZM207.555 28.64L207.353 29.0977L207.361 29.101L207.555 28.64ZM204.355 26.24L203.962 26.5498L203.962 26.5498L204.355 26.24ZM202.915 22.72V22.22H202.351L202.418 22.7796L202.915 22.72ZM208.075 22.72L208.564 22.6187L208.482 22.22H208.075V22.72ZM209.355 24.72L209.04 25.109L209.049 25.1155L209.057 25.1218L209.355 24.72ZM214.555 24.84L214.231 24.4589L214.221 24.4674L214.555 24.84ZM214.235 21.56L214.038 22.0196L214.045 22.0226L214.052 22.0254L214.235 21.56ZM211.115 20.64L211.222 20.1517L211.221 20.1515L211.115 20.64ZM208.515 19.96L208.37 20.4385L208.37 20.4385L208.515 19.96ZM206.075 18.96L205.82 19.3901L205.829 19.3956L205.838 19.4007L206.075 18.96ZM204.315 17.36L203.901 17.6412L203.907 17.649L204.315 17.36ZM205.715 10.48L205.391 10.0988L205.387 10.1019L205.715 10.48ZM217.235 10.32L216.925 10.7127L216.929 10.7155L217.235 10.32ZM219.755 14.84V15.34H220.329L220.25 14.7712L219.755 14.84ZM214.915 14.84L214.424 14.9381L214.505 15.34H214.915V14.84ZM209.355 13.2L209.068 12.7903L209.058 12.7975L209.355 13.2ZM212.835 16.96L212.947 16.4728L212.946 16.4726L212.835 16.96ZM216.635 18.04L216.47 18.5123L216.483 18.5165L216.635 18.04ZM219.435 19.76L219.062 20.0938L219.068 20.1002L219.435 19.76ZM220.475 23H219.974L219.975 23.0109L220.475 23ZM219.515 26.32L219.1 26.0401L219.1 26.0401L219.515 26.32ZM216.635 28.64L216.431 28.1835L216.431 28.1835L216.635 28.64ZM212.195 28.98C210.487 28.98 209.008 28.7083 207.748 28.179L207.361 29.101C208.767 29.6917 210.382 29.98 212.195 29.98V28.98ZM207.756 28.1823C206.488 27.6243 205.49 26.8715 204.747 25.9302L203.962 26.5498C204.819 27.6352 205.955 28.4823 207.353 29.0977L207.756 28.1823ZM204.747 25.9302C204.006 24.9921 203.56 23.9062 203.411 22.6604L202.418 22.7796C202.589 24.2005 203.103 25.4613 203.962 26.5498L204.747 25.9302ZM202.915 23.22H208.075V22.22H202.915V23.22ZM207.585 22.8213C207.771 23.7225 208.269 24.4862 209.04 25.109L209.669 24.331C209.053 23.8338 208.698 23.2642 208.564 22.6187L207.585 22.8213ZM209.057 25.1218C209.883 25.7334 210.915 26.02 212.115 26.02V25.02C211.075 25.02 210.267 24.7733 209.652 24.3182L209.057 25.1218ZM212.115 26.02C213.283 26.02 214.246 25.7868 214.888 25.2126L214.221 24.4674C213.85 24.7998 213.186 25.02 212.115 25.02V26.02ZM214.878 25.221C215.5 24.6928 215.855 24.0419 215.855 23.28H214.855C214.855 23.6914 214.676 24.0805 214.231 24.459L214.878 25.221ZM215.855 23.28C215.855 22.7804 215.745 22.323 215.494 21.9372C215.241 21.549 214.87 21.2726 214.417 21.0946L214.052 22.0254C214.345 22.1408 214.535 22.2977 214.656 22.4828C214.778 22.6703 214.855 22.9263 214.855 23.28H215.855ZM214.431 21.1004C213.643 20.7625 212.568 20.4479 211.222 20.1517L211.007 21.1283C212.327 21.4188 213.333 21.7175 214.038 22.0196L214.431 21.1004ZM211.221 20.1515C210.382 19.9678 209.528 19.7445 208.66 19.4815L208.37 20.4385C209.261 20.7088 210.141 20.9388 211.008 21.1284L211.221 20.1515ZM208.66 19.4815C207.808 19.2236 207.026 18.9024 206.311 18.5193L205.838 19.4007C206.616 19.8176 207.461 20.1631 208.37 20.4385L208.66 19.4815ZM206.329 18.5299C205.666 18.1365 205.133 17.6499 204.723 17.071L203.907 17.649C204.403 18.3501 205.043 18.9301 205.82 19.3901L206.329 18.5299ZM204.728 17.0788C204.341 16.5099 204.135 15.7992 204.135 14.92H203.135C203.135 15.9608 203.381 16.8768 203.901 17.6412L204.728 17.0788ZM204.135 14.92C204.135 13.3119 204.76 11.9677 206.042 10.8581L205.387 10.1019C203.896 11.3923 203.135 13.0081 203.135 14.92H204.135ZM206.038 10.8611C207.333 9.76195 209.176 9.18 211.635 9.18V8.18C209.026 8.18 206.923 8.79805 205.391 10.0989L206.038 10.8611ZM211.635 9.18C213.906 9.18 215.652 9.70871 216.925 10.7126L217.544 9.92737C216.044 8.74462 214.057 8.18 211.635 8.18V9.18ZM216.929 10.7155C218.229 11.7217 219.009 13.1062 219.259 14.9088L220.25 14.7712C219.967 12.7338 219.066 11.105 217.54 9.92452L216.929 10.7155ZM219.755 14.34H214.915V15.34H219.755V14.34ZM215.405 14.7419C215.236 13.8962 214.819 13.223 214.141 12.7732C213.477 12.3331 212.611 12.14 211.595 12.14V13.14C212.498 13.14 213.146 13.3136 213.588 13.6068C214.016 13.8904 214.3 14.3172 214.424 14.9381L215.405 14.7419ZM211.595 12.14C210.578 12.14 209.716 12.3363 209.068 12.7904L209.641 13.6096C210.059 13.317 210.691 13.14 211.595 13.14V12.14ZM209.058 12.7975C208.442 13.2516 208.095 13.8598 208.095 14.6H209.095C209.095 14.2202 209.254 13.8951 209.651 13.6025L209.058 12.7975ZM208.095 14.6C208.095 15.4682 208.689 16.0704 209.55 16.4563L209.959 15.5437C209.273 15.2362 209.095 14.9052 209.095 14.6H208.095ZM209.55 16.4563C210.365 16.8215 211.426 17.1502 212.723 17.4474L212.946 16.4726C211.683 16.1831 210.691 15.8718 209.959 15.5437L209.55 16.4563ZM212.722 17.4472C214.094 17.7638 215.343 18.119 216.47 18.5121L216.799 17.5679C215.633 17.161 214.348 16.7962 212.947 16.4728L212.722 17.4472ZM216.483 18.5165C217.587 18.8678 218.439 19.3982 219.062 20.0938L219.807 19.4262C219.044 18.5751 218.029 17.9589 216.786 17.5635L216.483 18.5165ZM219.068 20.1002C219.647 20.7238 219.975 21.6637 219.975 23H220.975C220.975 21.5097 220.609 20.2896 219.801 19.4198L219.068 20.1002ZM219.975 23.0109C219.999 24.1374 219.707 25.1419 219.1 26.0401L219.929 26.5999C220.655 25.5248 221.003 24.3159 220.974 22.9891L219.975 23.0109ZM219.1 26.0401C218.493 26.9382 217.612 27.6556 216.431 28.1835L216.839 29.0965C218.164 28.5044 219.202 27.6752 219.929 26.5999L219.1 26.0401ZM216.431 28.1835C215.255 28.7087 213.848 28.98 212.195 28.98V29.98C213.955 29.98 215.507 29.6913 216.839 29.0965L216.431 28.1835ZM225.13 29H224.63V29.5H225.13V29ZM225.13 0.999998V0.499998H224.63V0.999998H225.13ZM242.77 2.76L242.527 3.19687L242.533 3.20041L242.77 2.76ZM247.49 7.64L247.04 7.85676L247.043 7.86361L247.49 7.64ZM247.49 22.4L247.042 22.1787L247.041 22.181L247.49 22.4ZM242.77 27.28L243.009 27.7192L243.011 27.7181L242.77 27.28ZM230.25 24.6H229.75V25.1H230.25V24.6ZM240.01 23.48L240.251 23.9183L240.257 23.9146L240.01 23.48ZM242.93 20.2L243.392 20.3917L243.393 20.3886L242.93 20.2ZM242.93 9.84L242.467 10.0286L242.467 10.0286L242.93 9.84ZM230.25 5.36V4.86H229.75V5.36H230.25ZM225.63 29V0.999998H224.63V29H225.63ZM225.13 1.5H234.69V0.499998H225.13V1.5ZM234.69 1.5C237.914 1.5 240.517 2.07718 242.527 3.19682L243.013 2.32318C240.81 1.09615 238.026 0.499998 234.69 0.499998V1.5ZM242.533 3.20041C244.577 4.29894 246.074 5.84897 247.04 7.85673L247.941 7.42326C246.88 5.21769 245.23 3.51439 243.007 2.31959L242.533 3.20041ZM247.043 7.86361C248.042 9.8608 248.55 12.2345 248.55 15H249.55C249.55 12.1122 249.019 9.5792 247.937 7.41639L247.043 7.86361ZM248.55 15C248.55 17.7653 248.042 20.1534 247.042 22.1787L247.939 22.6213C249.019 20.4332 249.55 17.888 249.55 15H248.55ZM247.041 22.181C246.075 24.1632 244.577 25.7156 242.529 26.8419L243.011 27.7181C245.23 26.4978 246.879 24.7968 247.94 22.619L247.041 22.181ZM242.531 26.8408C240.52 27.9356 237.916 28.5 234.69 28.5V29.5C238.024 29.5 240.807 28.9177 243.009 27.7192L242.531 26.8408ZM234.69 28.5H225.13V29.5H234.69V28.5ZM230.25 25.1H234.45V24.1H230.25V25.1ZM234.45 25.1C236.841 25.1 238.789 24.721 240.251 23.9183L239.77 23.0417C238.512 23.7324 236.752 24.1 234.45 24.1V25.1ZM240.257 23.9146C241.712 23.0877 242.762 21.9101 243.392 20.3917L242.468 20.0083C241.925 21.3166 241.029 22.3256 239.763 23.0454L240.257 23.9146ZM243.393 20.3886C244.01 18.8736 244.31 17.0727 244.31 15H243.31C243.31 16.9807 243.023 18.6464 242.467 20.0114L243.393 20.3886ZM244.31 15C244.31 12.953 244.01 11.1657 243.393 9.65135L242.467 10.0286C243.023 11.3943 243.31 13.047 243.31 15H244.31ZM243.393 9.65135C242.764 8.10676 241.714 6.91377 240.257 6.08535L239.763 6.95464C241.026 7.67289 241.923 8.69324 242.467 10.0286L243.393 9.65135ZM240.257 6.08535C238.793 5.25298 236.843 4.86 234.45 4.86V5.86C236.75 5.86 238.507 6.24035 239.763 6.95464L240.257 6.08535ZM234.45 4.86H230.25V5.86H234.45V4.86ZM229.75 5.36V24.6H230.75V5.36H229.75ZM253.568 29H253.068V29.5H253.568V29ZM253.568 0.999998V0.499998H253.068V0.999998H253.568ZM271.448 3.04L271.114 3.41268L271.121 3.4187L271.448 3.04ZM272.328 12.44L271.956 12.1055L271.956 12.106L272.328 12.44ZM268.888 14.56L268.755 14.0778L268.79 15.0503L268.888 14.56ZM272.848 16.96L272.46 17.2753L272.463 17.2793L272.848 16.96ZM272.008 26.84L272.342 27.2116L272.342 27.2116L272.008 26.84ZM258.688 12.76H258.188V13.26H258.688V12.76ZM267.368 6.16L267.027 6.5264L267.034 6.53268L267.041 6.5387L267.368 6.16ZM258.688 5.12V4.62H258.188V5.12H258.688ZM258.688 24.84H258.188V25.34H258.688V24.84ZM267.928 23.8L268.249 24.1831L268.25 24.1821L267.928 23.8ZM267.888 17.72L268.211 17.3387L268.211 17.3387L267.888 17.72ZM258.688 16.6V16.1H258.188V16.6H258.688ZM254.068 29V0.999998H253.068V29H254.068ZM253.568 1.5H264.808V0.499998H253.568V1.5ZM264.808 1.5C267.643 1.5 269.718 2.16366 271.114 3.41262L271.781 2.66738C270.137 1.19633 267.785 0.499998 264.808 0.499998V1.5ZM271.121 3.4187C272.554 4.65366 273.268 6.23352 273.268 8.2H274.268C274.268 5.95314 273.435 4.093 271.774 2.66129L271.121 3.4187ZM273.268 8.2C273.268 9.86574 272.816 11.1503 271.956 12.1055L272.699 12.7745C273.76 11.5964 274.268 10.0543 274.268 8.2H273.268ZM271.956 12.106C271.087 13.074 270.024 13.7296 268.755 14.0778L269.02 15.0422C270.472 14.6437 271.702 13.886 272.7 12.774L271.956 12.106ZM268.79 15.0503C270.274 15.3472 271.492 16.0845 272.46 17.2753L273.236 16.6447C272.123 15.2755 270.701 14.4128 268.986 14.0697L268.79 15.0503ZM272.463 17.2793C273.426 18.4398 273.908 19.7926 273.908 21.36H274.908C274.908 19.5674 274.349 17.9868 273.232 16.6407L272.463 17.2793ZM273.908 21.36C273.908 23.4361 273.164 25.1262 271.673 26.4684L272.342 27.2116C274.051 25.6738 274.908 23.7105 274.908 21.36H273.908ZM271.673 26.4684C270.194 27.7998 268.063 28.5 265.208 28.5V29.5C268.219 29.5 270.622 28.7602 272.342 27.2116L271.673 26.4684ZM265.208 28.5H253.568V29.5H265.208V28.5ZM258.688 13.26H264.048V12.26H258.688V13.26ZM264.048 13.26C265.559 13.26 266.799 12.9104 267.694 12.1387L267.041 11.3813C266.39 11.9429 265.417 12.26 264.048 12.26V13.26ZM267.694 12.1387C268.6 11.3579 269.028 10.26 269.028 8.92H268.028C268.028 10.0333 267.682 10.8287 267.041 11.3813L267.694 12.1387ZM269.028 8.92C269.028 7.62532 268.595 6.55764 267.694 5.78129L267.041 6.5387C267.687 7.0957 268.028 7.86801 268.028 8.92H269.028ZM267.708 5.7936C266.832 4.98045 265.553 4.62 263.968 4.62V5.62C265.422 5.62 266.41 5.95289 267.027 6.5264L267.708 5.7936ZM263.968 4.62H258.688V5.62H263.968V4.62ZM258.188 5.12V12.76H259.188V5.12H258.188ZM258.688 25.34H264.408V24.34H258.688V25.34ZM264.408 25.34C265.998 25.34 267.302 24.9777 268.249 24.1831L267.606 23.4169C266.9 24.009 265.858 24.34 264.408 24.34V25.34ZM268.25 24.1821C269.233 23.3526 269.708 22.2032 269.708 20.8H268.708C268.708 21.9568 268.329 22.8074 267.605 23.4179L268.25 24.1821ZM269.708 20.8C269.708 19.3682 269.219 18.1936 268.211 17.3387L267.564 18.1013C268.317 18.7397 268.708 19.6184 268.708 20.8H269.708ZM268.211 17.3387C267.217 16.4952 265.904 16.1 264.328 16.1V17.1C265.738 17.1 266.798 17.4515 267.564 18.1013L268.211 17.3387ZM264.328 16.1H258.688V17.1H264.328V16.1ZM258.188 16.6V24.84H259.188V16.6H258.188Z" fill="#FAAD00"/>
</svg>
