<svg width="60" height="58" viewBox="0 0 60 58" fill="none" xmlns="http://www.w3.org/2000/svg">
<path d="M26.1958 3.7082C27.3932 0.022957 32.6068 0.0229586 33.8042 3.7082L38.0825 16.8754C38.618 18.5235 40.1538 19.6393 41.8867 19.6393H55.7315C59.6064 19.6393 61.2175 24.5978 58.0827 26.8754L46.882 35.0132C45.48 36.0317 44.8934 37.8372 45.4289 39.4853L49.7072 52.6525C50.9046 56.3377 46.6867 59.4022 43.5518 57.1246L32.3511 48.9868C30.9492 47.9683 29.0508 47.9683 27.6489 48.9868L16.4482 57.1246C13.3133 59.4022 9.09541 56.3377 10.2928 52.6525L14.5711 39.4853C15.1066 37.8372 14.52 36.0317 13.118 35.0132L1.91733 26.8754C-1.21752 24.5978 0.393579 19.6393 4.26847 19.6393H18.1133C19.8462 19.6393 21.382 18.5235 21.9175 16.8754L26.1958 3.7082Z" fill="#F5C937"/>
</svg>
